<?xml version="1.0" encoding="UTF-8" standalone="no"?>
<svg
   xmlns:dc="http://purl.org/dc/elements/1.1/"
   xmlns:cc="http://creativecommons.org/ns#"
   xmlns:rdf="http://www.w3.org/1999/02/22-rdf-syntax-ns#"
   xmlns:svg="http://www.w3.org/2000/svg"
   xmlns="http://www.w3.org/2000/svg"
   viewBox="0 0 1600 1600"
   height="1600"
   width="1600"
   xml:space="preserve"
   id="svg2"
   version="1.1"><metadata
     id="metadata8"><rdf:RDF><cc:Work
         rdf:about=""><dc:format>image/svg+xml</dc:format><dc:type
           rdf:resource="http://purl.org/dc/dcmitype/StillImage" /></cc:Work></rdf:RDF></metadata><defs
     id="defs6"><clipPath
       id="clipPath18"
       clipPathUnits="userSpaceOnUse"><path
         id="path16"
         d="M 0,1200 H 1200 V 0 H 0 Z" /></clipPath></defs><g
     transform="matrix(1.3333333,0,0,-1.3333333,0,1600)"
     id="g10"><g
       id="g12"><g
         clip-path="url(#clipPath18)"
         id="g14"><g
           transform="translate(363.0664,491.4427)"
           id="g20"><path
             id="path22"
             style="fill:#000000;fill-opacity:1;fill-rule:nonzero;stroke:none"
             d="m 0,0 c 56.069,13.468 187.633,173.437 222.968,246.835 35.335,73.397 34.607,147.038 -1.627,164.482 C 185.108,428.76 127.091,383.4 91.756,310.003 56.421,236.605 -40.687,-9.773 0,0" /></g><g
           transform="translate(938.4612,566.4292)"
           id="g24"><path
             id="path26"
             style="fill:#000000;fill-opacity:1;fill-rule:nonzero;stroke:none"
             d="m 0,0 c -13.013,38.05 -114.235,25.292 -191.312,-1.069 -77.078,-26.36 -259.872,-125.197 -279.909,-179.268 -14.54,-39.236 252.967,7.568 327.033,41.478 C -52.609,-96.931 13.013,-38.05 0,0" /></g><g
           transform="translate(412.8848,450.547)"
           id="g28"><path
             id="path30"
             style="fill:#000000;fill-opacity:1;fill-rule:nonzero;stroke:none"
             d="m 0,0 c -1.607,-41.813 238.049,85.917 297.885,141.193 73.984,68.345 157.08,170.111 132.871,202.222 -24.208,32.11 -155.49,-36.902 -220.536,-85.94 C 145.174,208.437 2.215,57.621 0,0" /></g><g
           transform="translate(283.0115,432.5443)"
           id="g32"><path
             id="path34"
             style="fill:#000000;fill-opacity:1;fill-rule:nonzero;stroke:none"
             d="m 0,0 c -13.387,-18.702 -23.119,-37.416 -23.119,-50.592 0,-48.846 39.598,-88.444 88.445,-88.444 10.991,0 27.069,7.068 43.888,17.197 C 68.913,-95.123 28.469,-48.647 0,0" /></g><g
           transform="translate(324.2962,471.7318)"
           id="g36"><path
             id="path38"
             style="fill:#000000;fill-opacity:1;fill-rule:nonzero;stroke:none"
             d="m 0,0 c -0.411,0.861 0.05,1.895 0.072,2.843 -7.703,-4.361 -18.232,-13.074 -29.326,-24.045 27.676,-54.403 75.728,-109.3 119.959,-129.491 11.924,10.314 21.53,20.15 26.282,27.208 C 74.248,-108.724 25.425,-53.276 0,0" /></g></g></g></g></svg>